<svg width="32" height="32" viewBox="0 0 32 32" fill="none" xmlns="http://www.w3.org/2000/svg">
<g clip-path="url(#clip0_10_44)">
<path d="M25.368 27C25.1333 27 24.9307 26.9253 24.76 26.776C24.6107 26.6053 24.536 26.4027 24.536 26.168V21.368C24.536 21.1333 24.6107 20.9307 24.76 20.76C24.9307 20.5893 25.1333 20.504 25.368 20.504H30.168C30.4027 20.504 30.6053 20.5893 30.776 20.76C30.9467 20.9307 31.032 21.1333 31.032 21.368V26.168C31.032 26.4027 30.9467 26.6053 30.776 26.776C30.6053 26.9253 30.4027 27 30.168 27H25.368Z" fill="#9CA3AF"/>
<path d="M1.408 29.688C1.216 29.688 1.04533 29.6133 0.896 29.464C0.768 29.336 0.704 29.176 0.704 28.984C0.704 28.8987 0.725333 28.8027 0.768 28.696L11.552 2.712C11.6373 2.52 11.776 2.328 11.968 2.136C12.1813 1.944 12.4693 1.848 12.832 1.848H16.416C16.608 1.848 16.768 1.92267 16.896 2.072C17.0453 2.2 17.12 2.36 17.12 2.552C17.12 2.63733 17.088 2.73333 17.024 2.84L6.176 28.824C6.112 29.016 5.984 29.208 5.792 29.4C5.6 29.592 5.30133 29.688 4.896 29.688H1.408ZM11.533 29.688C11.341 29.688 11.1703 29.6133 11.021 29.464C10.893 29.336 10.829 29.176 10.829 28.984C10.829 28.8987 10.8503 28.8027 10.893 28.696L21.677 2.712C21.7623 2.52 21.901 2.328 22.093 2.136C22.3063 1.944 22.5943 1.848 22.957 1.848H26.541C26.733 1.848 26.893 1.92267 27.021 2.072C27.1703 2.2 27.245 2.36 27.245 2.552C27.245 2.63733 27.213 2.73333 27.149 2.84L16.301 28.824C16.237 29.016 16.109 29.208 15.917 29.4C15.725 29.592 15.4263 29.688 15.021 29.688H11.533Z" fill="#9CA3AF"/>
</g>
<defs>
<clipPath id="clip0_10_44">
<rect width="32" height="32" fill="white"/>
</clipPath>
</defs>
</svg>
