<svg width="240" height="240" viewBox="0 0 240 240" fill="none" xmlns="http://www.w3.org/2000/svg">
<path fill-rule="evenodd" clip-rule="evenodd" d="M6.45608 223.433C7.58859 224.565 8.88288 225.132 10.339 225.132H36.7911C39.865 225.132 42.13 224.404 43.5861 222.948C45.0422 221.491 46.0129 220.035 46.4983 218.579L128.767 21.5231C129.252 20.7141 129.495 19.9861 129.495 19.3389C129.495 17.8829 128.929 16.6695 127.796 15.6988C126.825 14.5663 125.612 14 124.156 14H96.9757C94.2254 14 92.0412 14.728 90.4234 16.1841C88.9673 17.6402 87.9157 19.0963 87.2685 20.5523L5.48536 217.609C5.16179 218.417 5 219.146 5 219.793C5 221.249 5.48536 222.462 6.45608 223.433ZM83.2416 223.433C84.3741 224.565 85.6684 225.132 87.1244 225.132H113.577C116.65 225.132 118.916 224.404 120.372 222.948C121.828 221.491 122.798 220.035 123.284 218.579L205.552 21.5231C206.038 20.7141 206.28 19.9861 206.28 19.3389C206.28 17.8829 205.714 16.6695 204.582 15.6988C203.611 14.5663 202.397 14 200.941 14H173.761C171.011 14 168.827 14.728 167.209 16.1841C165.753 17.6402 164.701 19.0963 164.054 20.5523L82.2708 217.609C81.9473 218.417 81.7855 219.146 81.7855 219.793C81.7855 221.249 82.2708 222.462 83.2416 223.433ZM187.435 203.048C188.729 204.18 190.266 204.747 192.046 204.747H228.448C230.227 204.747 231.764 204.18 233.059 203.048C234.353 201.754 235 200.217 235 198.437V162.035C235 160.255 234.353 158.718 233.059 157.424C231.764 156.13 230.227 155.483 228.448 155.483H192.046C190.266 155.483 188.729 156.13 187.435 157.424C186.302 158.718 185.736 160.255 185.736 162.035V198.437C185.736 200.217 186.302 201.754 187.435 203.048Z" fill="#1F2937"/>
</svg>
